<?xml version="1.0"?>
<svg xmlns="http://www.w3.org/2000/svg" id="Layer_2_copy_2" data-name="Layer 2 copy 2" viewBox="0 0 64 64" width="512" height="512"><path d="M59,31h4.975a31.873,31.873,0,0,0-8.668-20.893L52,13.417A1,1,0,0,1,50.583,12l3.31-3.31A31.873,31.873,0,0,0,33,.025V5a1,1,0,0,1-2,0V.025A31.873,31.873,0,0,0,10.107,8.693L13.417,12A1,1,0,1,1,12,13.417l-3.31-3.31A31.873,31.873,0,0,0,.025,31H5a1,1,0,0,1,0,2H.025A31.873,31.873,0,0,0,8.693,53.893L12,50.583A1,1,0,0,1,13.417,52l-3.31,3.31A31.873,31.873,0,0,0,31,63.975V59a1,1,0,0,1,2,0v4.975a31.873,31.873,0,0,0,20.893-8.668L50.583,52A1,1,0,0,1,52,50.583l3.31,3.31A31.873,31.873,0,0,0,63.975,33H59a1,1,0,0,1,0-2ZM45.558,40.847a1,1,0,0,1-1.385.291l-12.72-8.3A1,1,0,0,1,31,32V12a1,1,0,0,1,2,0V31.458l12.267,8A1,1,0,0,1,45.558,40.847Z"/></svg>
