<svg height="512pt" viewBox="0 0 512 512" width="512pt" xmlns="http://www.w3.org/2000/svg"><path d="m416 512h-320c-53.023438 0-96-42.976562-96-96v-320c0-53.023438 42.976562-96 96-96h320c53.023438 0 96 42.976562 96 96v320c0 53.023438-42.976562 96-96 96zm0 0" fill="#e3f8fa"/><path d="m375.359375 235.28125-20.269531-20.273438v-28.59375c0-16.207031-13.234375-29.4375-29.441406-29.4375h-28.59375l-20.253907-20.257812c-11.089843-11.085938-30.511719-11.085938-41.601562 0l-20.269531 20.273438h-28.59375c-16.207032 0-29.441407 13.230468-29.441407 29.441406v28.589844l-20.253906 20.257812c-5.550781 5.550781-8.640625 13.007812-8.640625 20.796875 0 7.792969 3.089844 15.25 8.640625 20.800781l20.269531 20.273438v28.589844c0 16.210937 13.234375 29.441406 29.441406 29.441406h28.59375l20.269532 20.273437c5.554687 5.550781 13.007812 8.640625 20.800781 8.640625s15.25-3.089844 20.800781-8.640625l20.273438-20.273437h28.589844c16.207031 0 29.441406-13.230469 29.441406-29.441406v-28.589844l20.269531-20.273438c5.554687-5.550781 8.640625-13.007812 8.640625-20.800781-.03125-7.789063-3.121094-15.246094-8.671875-20.796875zm-95.152344 65.277344c3.089844 1.167968 5.121094 4.160156 5.121094 7.472656 0 3.199219-1.921875 6.191406-5.007813 7.472656-7.566406 2.992188-15.792968 4.59375-24.320312 4.59375-37.121094 0-64-26.882812-64-64 0-37.121094 26.878906-64 64-64 8.527344 0 16.753906 1.597656 24.320312 4.589844 3.085938 1.28125 5.007813 4.273438 5.007813 7.472656 0 3.3125-2.03125 6.289063-5.121094 7.472656-16.847656 6.605469-34.878906 21.757813-34.878906 44.480469 0 22.71875 18.03125 37.839844 34.878906 44.445313zm0 0" fill="#26c6da"/></svg>