<svg height="512pt" viewBox="0 0 512 512" width="512pt" xmlns="http://www.w3.org/2000/svg"><path d="m416 512h-320c-53.023438 0-96-42.976562-96-96v-320c0-53.023438 42.976562-96 96-96h320c53.023438 0 96 42.976562 96 96v320c0 53.023438-42.976562 96-96 96zm0 0" fill="#fff9dd"/><path d="m375.359375 235.28125-20.269531-20.273438v-28.59375c0-16.207031-13.234375-29.4375-29.441406-29.4375h-28.59375l-20.253907-20.257812c-11.089843-11.085938-30.511719-11.085938-41.601562 0l-20.269531 20.273438h-28.59375c-16.207032 0-29.441407 13.230468-29.441407 29.441406v28.589844l-20.253906 20.257812c-5.550781 5.550781-8.640625 13.007812-8.640625 20.796875 0 7.792969 3.089844 15.25 8.640625 20.800781l20.269531 20.273438v28.589844c0 16.210937 13.234375 29.441406 29.441406 29.441406h28.59375l20.269532 20.273437c5.554687 5.550781 13.007812 8.640625 20.800781 8.640625s15.25-3.089844 20.800781-8.640625l20.273438-20.273437h28.589844c16.207031 0 29.441406-13.230469 29.441406-29.441406v-28.589844l20.269531-20.273438c5.554687-5.550781 8.640625-13.007812 8.640625-20.800781-.03125-7.789063-3.121094-15.246094-8.671875-20.796875zm0 0" fill="#ffd200"/><path d="m264 312.078125c0 4.371094-3.632812 8-8 8-37.121094 0-64-26.878906-64-64 0-37.117187 26.878906-64 64-64 4.367188 0 8 3.632813 8 8zm0 0" fill="#ffe777"/></svg>